<svg version="1.2" xmlns="http://www.w3.org/2000/svg" viewBox="0 0 900 206" width="900" height="206">
	<title>footer-waves-svg</title>
	<style>
		.s0 { fill: #14094f } 
		.s1 { fill: #003e84 } 
		.s2 { fill: #00a6ce } 
		.s3 { fill: #5adae8 } 
	</style>
	<path id="Layer" class="s0" d="m0-94h900v600h-900z"/>
	<g id="Layer">
		<path id="Layer" class="s1" d="m900 392.7c-28.6-24.9-57.3-49.9-83.1-68.9-25.8-19-48.8-32-72.7-41.8-23.8-9.7-48.4-16.2-79.8-23.5-31.3-7.2-69.3-15.2-71.3-45.6-2-30.4 31.9-83.2-1.6-100.8-33.5-17.6-134.3 0.1-141.2-19.8-6.9-19.9 80.3-77.4 89.8-114.7 9.4-37.3-58.7-54.5-126.8-71.6h486.7z"/>
		<path id="Layer" class="s2" d="m900 230.5c-19.1-16.6-38.2-33.3-55.4-46-17.2-12.6-32.5-21.3-48.4-27.8-15.9-6.5-32.4-10.8-53.2-15.7-20.9-4.8-46.2-10.1-47.6-30.4-1.3-20.3 21.3-55.5-1.1-67.2-22.3-11.7-89.5 0.1-94.1-13.2-4.6-13.3 53.5-51.6 59.8-76.5 6.4-24.8-39.1-36.3-84.5-47.7h324.5z"/>
		<path id="Layer" class="s3" d="m900 68.2c-9.5-8.3-19.1-16.6-27.7-22.9-8.6-6.4-16.3-10.7-24.2-14-8-3.2-16.2-5.4-26.6-7.8-10.5-2.4-23.1-5.1-23.8-15.2-0.7-10.1 10.6-27.7-0.5-33.6-11.2-5.9-44.8 0-47.1-6.6-2.3-6.6 26.8-25.8 29.9-38.2 3.2-12.5-19.5-18.2-42.2-23.9h162.2z"/>
	</g>
	<g id="Layer">
		<path id="Layer" class="s1" d="m0 19.3c26.7 37.6 53.4 75.2 78.6 91.4 25.2 16.3 48.8 11.3 85.2-0.1 36.4-11.5 85.5-29.3 106.6-9.3 21.2 20 14.3 77.9 18.8 115.5 4.5 37.6 20.3 54.8 30.1 75.9 9.7 21.1 13.4 46 36.4 66 23 19.9 65.5 34.8 90.6 58.5 25 23.8 32.7 56.3 40.4 88.8h-486.7z"/>
		<path id="Layer" class="s2" d="m0 181.5c17.8 25.1 35.6 50.1 52.4 61 16.8 10.9 32.5 7.5 56.8-0.1 24.2-7.6 57-19.6 71.1-6.2 14.1 13.3 9.5 52 12.5 77 3 25 13.6 36.5 20.1 50.6 6.4 14 8.9 30.7 24.2 44 15.4 13.3 43.7 23.2 60.4 39 16.7 15.8 21.9 37.5 27 59.2h-324.5z"/>
		<path id="Layer" class="s3" d="m0 343.8c8.9 12.5 17.8 25 26.2 30.4 8.4 5.5 16.3 3.8 28.4 0 12.1-3.8 28.5-9.8 35.5-3.1 7.1 6.7 4.8 26 6.3 38.5 1.5 12.5 6.8 18.3 10 25.3 3.3 7 4.5 15.3 12.2 22 7.6 6.6 21.8 11.6 30.2 19.5 8.3 7.9 10.9 18.8 13.4 29.6h-162.2z"/>
	</g>
</svg>