<svg id="visual" viewBox="0 0 900 600" width="900" height="600" xmlns="http://www.w3.org/2000/svg" xmlns:xlink="http://www.w3.org/1999/xlink" version="1.1"><rect x="0" y="0" width="900" height="600" fill="#14094f"></rect><defs><linearGradient id="grad1_0" x1="33.3%" y1="0%" x2="100%" y2="100%"><stop offset="20%" stop-color="#5adae8" stop-opacity="1"></stop><stop offset="80%" stop-color="#5adae8" stop-opacity="1"></stop></linearGradient></defs><defs><linearGradient id="grad1_1" x1="33.3%" y1="0%" x2="100%" y2="100%"><stop offset="20%" stop-color="#5adae8" stop-opacity="1"></stop><stop offset="80%" stop-color="#0071ae" stop-opacity="1"></stop></linearGradient></defs><defs><linearGradient id="grad1_2" x1="33.3%" y1="0%" x2="100%" y2="100%"><stop offset="20%" stop-color="#14094f" stop-opacity="1"></stop><stop offset="80%" stop-color="#0071ae" stop-opacity="1"></stop></linearGradient></defs><defs><linearGradient id="grad2_0" x1="0%" y1="0%" x2="66.7%" y2="100%"><stop offset="20%" stop-color="#5adae8" stop-opacity="1"></stop><stop offset="80%" stop-color="#5adae8" stop-opacity="1"></stop></linearGradient></defs><defs><linearGradient id="grad2_1" x1="0%" y1="0%" x2="66.7%" y2="100%"><stop offset="20%" stop-color="#0071ae" stop-opacity="1"></stop><stop offset="80%" stop-color="#5adae8" stop-opacity="1"></stop></linearGradient></defs><defs><linearGradient id="grad2_2" x1="0%" y1="0%" x2="66.7%" y2="100%"><stop offset="20%" stop-color="#0071ae" stop-opacity="1"></stop><stop offset="80%" stop-color="#14094f" stop-opacity="1"></stop></linearGradient></defs><g transform="translate(900, 0)"><path d="M0 486.7C-28.6 461.8 -57.3 436.8 -83.1 417.8C-108.9 398.8 -131.9 385.8 -155.8 376C-179.6 366.3 -204.2 359.8 -235.6 352.5C-266.9 345.3 -304.9 337.3 -306.9 306.9C-308.9 276.5 -275 223.7 -308.5 206.1C-342 188.5 -442.8 206.2 -449.7 186.3C-456.6 166.4 -369.4 108.9 -359.9 71.6C-350.5 34.3 -418.6 17.1 -486.7 0L0 0Z" fill="#003e84"></path><path d="M0 324.5C-19.1 307.9 -38.2 291.2 -55.4 278.5C-72.6 265.9 -87.9 257.2 -103.8 250.7C-119.7 244.2 -136.2 239.9 -157 235C-177.9 230.2 -203.2 224.9 -204.6 204.6C-205.9 184.3 -183.3 149.1 -205.7 137.4C-228 125.7 -295.2 137.5 -299.8 124.2C-304.4 110.9 -246.3 72.6 -240 47.7C-233.6 22.9 -279.1 11.4 -324.5 0L0 0Z" fill="#00a6ce"></path><path d="M0 162.2C-9.5 153.9 -19.1 145.6 -27.7 139.3C-36.3 132.9 -44 128.6 -51.9 125.3C-59.9 122.1 -68.1 119.9 -78.5 117.5C-89 115.1 -101.6 112.4 -102.3 102.3C-103 92.2 -91.7 74.6 -102.8 68.7C-114 62.8 -147.6 68.7 -149.9 62.1C-152.2 55.5 -123.1 36.3 -120 23.9C-116.8 11.4 -139.5 5.7 -162.2 0L0 0Z" fill="#5adae8"></path></g><g transform="translate(0, 600)"><path d="M0 -486.7C26.7 -449.1 53.4 -411.5 78.6 -395.3C103.8 -379 127.4 -384 163.8 -395.4C200.2 -406.9 249.3 -424.7 270.4 -404.7C291.6 -384.7 284.7 -326.8 289.2 -289.2C293.7 -251.6 309.5 -234.4 319.3 -213.3C329 -192.2 332.7 -167.3 355.7 -147.3C378.7 -127.4 421.2 -112.5 446.3 -88.8C471.3 -65 479 -32.5 486.7 0L0 0Z" fill="#003e84"></path><path d="M0 -324.5C17.8 -299.4 35.6 -274.4 52.4 -263.5C69.2 -252.6 84.9 -256 109.2 -263.6C133.4 -271.2 166.2 -283.2 180.3 -269.8C194.4 -256.5 189.8 -217.8 192.8 -192.8C195.8 -167.8 206.4 -156.3 212.9 -142.2C219.3 -128.2 221.8 -111.5 237.1 -98.2C252.5 -84.9 280.8 -75 297.5 -59.2C314.2 -43.4 319.4 -21.7 324.5 0L0 0Z" fill="#00a6ce"></path><path d="M0 -162.2C8.9 -149.7 17.8 -137.2 26.2 -131.8C34.6 -126.3 42.5 -128 54.6 -131.8C66.7 -135.6 83.1 -141.6 90.1 -134.9C97.2 -128.2 94.9 -108.9 96.4 -96.4C97.9 -83.9 103.2 -78.1 106.4 -71.1C109.7 -64.1 110.9 -55.8 118.6 -49.1C126.2 -42.5 140.4 -37.5 148.8 -29.6C157.1 -21.7 159.7 -10.8 162.2 0L0 0Z" fill="#5adae8"></path></g></svg>