<svg id="visual" viewBox="0 0 900 600" width="900" height="600" xmlns="http://www.w3.org/2000/svg" xmlns:xlink="http://www.w3.org/1999/xlink" version="1.1"><rect x="0" y="0" width="900" height="600" fill="#14094f"></rect><path d="M0 263L11.5 261.5C23 260 46 257 69 252.2C92 247.3 115 240.7 138.2 246.7C161.3 252.7 184.7 271.3 207.8 261.5C231 251.7 254 213.3 277 193.7C300 174 323 173 346 183.2C369 193.3 392 214.7 415.2 216C438.3 217.3 461.7 198.7 484.8 193.2C508 187.7 531 195.3 554 200.3C577 205.3 600 207.7 623 208.2C646 208.7 669 207.3 692.2 220.5C715.3 233.7 738.7 261.3 761.8 263.3C785 265.3 808 241.7 831 238.7C854 235.7 877 253.3 888.5 262.2L900 271L900 0L888.5 0C877 0 854 0 831 0C808 0 785 0 761.8 0C738.7 0 715.3 0 692.2 0C669 0 646 0 623 0C600 0 577 0 554 0C531 0 508 0 484.8 0C461.7 0 438.3 0 415.2 0C392 0 369 0 346 0C323 0 300 0 277 0C254 0 231 0 207.8 0C184.7 0 161.3 0 138.2 0C115 0 92 0 69 0C46 0 23 0 11.5 0L0 0Z" fill="#5adae8"></path><path d="M0 137L11.5 148.5C23 160 46 183 69 197.3C92 211.7 115 217.3 138.2 216.8C161.3 216.3 184.7 209.7 207.8 200.7C231 191.7 254 180.3 277 171.5C300 162.7 323 156.3 346 153.5C369 150.7 392 151.3 415.2 160.8C438.3 170.3 461.7 188.7 484.8 195.2C508 201.7 531 196.3 554 183.3C577 170.3 600 149.7 623 152.2C646 154.7 669 180.3 692.2 192C715.3 203.7 738.7 201.3 761.8 197.2C785 193 808 187 831 181.5C854 176 877 171 888.5 168.5L900 166L900 0L888.5 0C877 0 854 0 831 0C808 0 785 0 761.8 0C738.7 0 715.3 0 692.2 0C669 0 646 0 623 0C600 0 577 0 554 0C531 0 508 0 484.8 0C461.7 0 438.3 0 415.2 0C392 0 369 0 346 0C323 0 300 0 277 0C254 0 231 0 207.8 0C184.7 0 161.3 0 138.2 0C115 0 92 0 69 0C46 0 23 0 11.5 0L0 0Z" fill="#0094c6"></path><path d="M0 146L11.5 144.2C23 142.3 46 138.7 69 142.5C92 146.3 115 157.7 138.2 163C161.3 168.3 184.7 167.7 207.8 158.3C231 149 254 131 277 124C300 117 323 121 346 121.2C369 121.3 392 117.7 415.2 117.3C438.3 117 461.7 120 484.8 116.7C508 113.3 531 103.7 554 103.3C577 103 600 112 623 124.3C646 136.7 669 152.3 692.2 158.2C715.3 164 738.7 160 761.8 152.3C785 144.7 808 133.3 831 127.5C854 121.7 877 121.3 888.5 121.2L900 121L900 0L888.5 0C877 0 854 0 831 0C808 0 785 0 761.8 0C738.7 0 715.3 0 692.2 0C669 0 646 0 623 0C600 0 577 0 554 0C531 0 508 0 484.8 0C461.7 0 438.3 0 415.2 0C392 0 369 0 346 0C323 0 300 0 277 0C254 0 231 0 207.8 0C184.7 0 161.3 0 138.2 0C115 0 92 0 69 0C46 0 23 0 11.5 0L0 0Z" fill="#004f92"></path><path d="M0 68L11.5 72.8C23 77.7 46 87.3 69 83.8C92 80.3 115 63.7 138.2 64.8C161.3 66 184.7 85 207.8 85.3C231 85.7 254 67.3 277 61.8C300 56.3 323 63.7 346 73.2C369 82.7 392 94.3 415.2 98.7C438.3 103 461.7 100 484.8 99.2C508 98.3 531 99.7 554 95.5C577 91.3 600 81.7 623 75.8C646 70 669 68 692.2 71.8C715.3 75.7 738.7 85.3 761.8 81.7C785 78 808 61 831 53.7C854 46.3 877 48.7 888.5 49.8L900 51L900 0L888.5 0C877 0 854 0 831 0C808 0 785 0 761.8 0C738.7 0 715.3 0 692.2 0C669 0 646 0 623 0C600 0 577 0 554 0C531 0 508 0 484.8 0C461.7 0 438.3 0 415.2 0C392 0 369 0 346 0C323 0 300 0 277 0C254 0 231 0 207.8 0C184.7 0 161.3 0 138.2 0C115 0 92 0 69 0C46 0 23 0 11.5 0L0 0Z" fill="#14094f"></path></svg>