<?xml version="1.0" standalone="no"?><svg xmlns="http://www.w3.org/2000/svg" viewBox="0 0 1440 320"><path fill="#5ADAE8" fill-opacity="1" d="M0,288L18.5,245.3C36.9,203,74,117,111,101.3C147.7,85,185,139,222,160C258.5,181,295,171,332,165.3C369.2,160,406,160,443,186.7C480,213,517,267,554,250.7C590.8,235,628,149,665,128C701.5,107,738,149,775,144C812.3,139,849,85,886,69.3C923.1,53,960,75,997,101.3C1033.8,128,1071,160,1108,160C1144.6,160,1182,128,1218,128C1255.4,128,1292,160,1329,154.7C1366.2,149,1403,107,1422,85.3L1440,64L1440,320L1421.5,320C1403.1,320,1366,320,1329,320C1292.3,320,1255,320,1218,320C1181.5,320,1145,320,1108,320C1070.8,320,1034,320,997,320C960,320,923,320,886,320C849.2,320,812,320,775,320C738.5,320,702,320,665,320C627.7,320,591,320,554,320C516.9,320,480,320,443,320C406.2,320,369,320,332,320C295.4,320,258,320,222,320C184.6,320,148,320,111,320C73.8,320,37,320,18,320L0,320Z"></path></svg>