<svg version="1.2" xmlns="http://www.w3.org/2000/svg" viewBox="0 0 900 241" width="900" height="241">
	<title>waves-svg</title>
	<style>
		.s0 { fill: #14094f } 
		.s1 { fill: #0060a0 } 
		.s2 { fill: #26b7d9 } 
		.s3 { fill: #5adae8 } 
	</style>
	<path id="Layer" class="s0" d="m0-359h900v600h-900z"/>
	<path id="Layer" class="s0" d="m0 46l16.7 2.8c16.6 2.9 50 8.5 83.3 7 33.3-1.5 66.7-10.1 100-10.3 33.3-0.2 66.7 8.2 100 5.3 33.3-2.8 66.7-16.8 100-27 33.3-10.1 66.7-16.5 100-11.3 33.3 5.2 66.7 21.8 100 34.8 33.3 13 66.7 22.4 100 21.2 33.3-1.2 66.7-12.8 100-26.7 33.3-13.8 66.7-29.8 83.3-37.8l16.7-8v246h-16.7c-16.6 0-50 0-83.3 0-33.3 0-66.7 0-100 0-33.3 0-66.7 0-100 0-33.3 0-66.7 0-100 0-33.3 0-66.7 0-100 0-33.3 0-66.7 0-100 0-33.3 0-66.7 0-100 0-33.3 0-66.7 0-100 0-33.3 0-66.7 0-83.3 0h-16.7z"/>
	<path id="Layer" class="s1" d="m0 87l16.7-1c16.6-1 50-3 83.3-1.7 33.3 1.4 66.7 6 100 9.5 33.3 3.5 66.7 5.9 100 4.2 33.3-1.7 66.7-7.3 100-10.7 33.3-3.3 66.7-4.3 100-6.3 33.3-2 66.7-5 100-14.8 33.3-9.9 66.7-26.5 100-35.4 33.3-8.8 66.7-9.8 100-5.3 33.3 4.5 66.7 14.5 83.3 19.5l16.7 5v192h-16.7c-16.6 0-50 0-83.3 0-33.3 0-66.7 0-100 0-33.3 0-66.7 0-100 0-33.3 0-66.7 0-100 0-33.3 0-66.7 0-100 0-33.3 0-66.7 0-100 0-33.3 0-66.7 0-100 0-33.3 0-66.7 0-100 0-33.3 0-66.7 0-83.3 0h-16.7z"/>
	<path id="Layer" class="s2" d="m0 131l16.7-1.8c16.6-1.9 50-5.5 83.3-17 33.3-11.5 66.7-30.9 100-42.9 33.3-12 66.7-16.6 100-7.8 33.3 8.8 66.7 31.2 100 38.5 33.3 7.3 66.7-0.3 100-9.8 33.3-9.5 66.7-20.9 100-26.7 33.3-5.8 66.7-6.2 100 1.2 33.3 7.3 66.7 22.3 100 25.5 33.3 3.1 66.7-5.5 83.3-9.9l16.7-4.3v166h-16.7c-16.6 0-50 0-83.3 0-33.3 0-66.7 0-100 0-33.3 0-66.7 0-100 0-33.3 0-66.7 0-100 0-33.3 0-66.7 0-100 0-33.3 0-66.7 0-100 0-33.3 0-66.7 0-100 0-33.3 0-66.7 0-100 0-33.3 0-66.7 0-83.3 0h-16.7z"/>
	<path id="Layer" class="s3" d="m0 146l16.7-8c16.6-8 50-24 83.3-23 33.3 1 66.7 19 100 22.2 33.3 3.1 66.7-8.5 100-11.4 33.3-2.8 66.7 3.2 100 9.2 33.3 6 66.7 12 100 7.2 33.3-4.9 66.7-20.5 100-22.7 33.3-2.2 66.7 9.2 100 14 33.3 4.8 66.7 3.2 100-1 33.3-4.2 66.7-10.8 83.3-14.2l16.7-3.3v127h-16.7c-16.6 0-50 0-83.3 0-33.3 0-66.7 0-100 0-33.3 0-66.7 0-100 0-33.3 0-66.7 0-100 0-33.3 0-66.7 0-100 0-33.3 0-66.7 0-100 0-33.3 0-66.7 0-100 0-33.3 0-66.7 0-100 0-33.3 0-66.7 0-83.3 0h-16.7z"/>
	<path id="Layer" class="s2" d="m0 145l16.7-3.3c16.6-3.4 50-10 83.3-6.7 33.3 3.3 66.7 16.7 100 20.2 33.3 3.5 66.7-2.9 100-4.5 33.3-1.7 66.7 1.3 100 3.3 33.3 2 66.7 3 100 1.5 33.3-1.5 66.7-5.5 100-3 33.3 2.5 66.7 11.5 100 6.8 33.3-4.6 66.7-23 100-23.8 33.3-0.8 66.7 15.8 83.3 24.2l16.7 8.3v74h-16.7c-16.6 0-50 0-83.3 0-33.3 0-66.7 0-100 0-33.3 0-66.7 0-100 0-33.3 0-66.7 0-100 0-33.3 0-66.7 0-100 0-33.3 0-66.7 0-100 0-33.3 0-66.7 0-100 0-33.3 0-66.7 0-100 0-33.3 0-66.7 0-83.3 0h-16.7z"/>
	<path id="Layer" class="s1" d="m0 158l16.7 0.5c16.6 0.5 50 1.5 83.3 8.8 33.3 7.4 66.7 21 100 26 33.3 5 66.7 1.4 100-4.3 33.3-5.7 66.7-13.3 100-14.7 33.3-1.3 66.7 3.7 100 2.5 33.3-1.1 66.7-8.5 100-12.6 33.3-4.2 66.7-5.2 100-2.9 33.3 2.4 66.7 8 100 12 33.3 4 66.7 6.4 83.3 7.5l16.7 1.2v60h-16.7c-16.6 0-50 0-83.3 0-33.3 0-66.7 0-100 0-33.3 0-66.7 0-100 0-33.3 0-66.7 0-100 0-33.3 0-66.7 0-100 0-33.3 0-66.7 0-100 0-33.3 0-66.7 0-100 0-33.3 0-66.7 0-100 0-33.3 0-66.7 0-83.3 0h-16.7z"/>
	<path id="Layer" class="s0" d="m0 224l16.7-5.5c16.6-5.5 50-16.5 83.3-20 33.3-3.5 66.7 0.5 100-1.2 33.3-1.6 66.7-9 100-6.8 33.3 2.2 66.7 13.8 100 20.5 33.3 6.7 66.7 8.3 100 4.2 33.3-4.2 66.7-14.2 100-17.7 33.3-3.5 66.7-0.5 100 3.7 33.3 4.1 66.7 9.5 100 11.1 33.3 1.7 66.7-0.3 83.3-1.3l16.7-1v32h-16.7c-16.6 0-50 0-83.3 0-33.3 0-66.7 0-100 0-33.3 0-66.7 0-100 0-33.3 0-66.7 0-100 0-33.3 0-66.7 0-100 0-33.3 0-66.7 0-100 0-33.3 0-66.7 0-100 0-33.3 0-66.7 0-100 0-33.3 0-66.7 0-83.3 0h-16.7z"/>
</svg>