<svg id="visual" viewBox="0 0 900 600" width="900" height="600" xmlns="http://www.w3.org/2000/svg" xmlns:xlink="http://www.w3.org/1999/xlink" version="1.1"><rect x="0" y="0" width="900" height="600" fill="#14094f"></rect><path d="M0 405L16.7 407.8C33.3 410.7 66.7 416.3 100 414.8C133.3 413.3 166.7 404.7 200 404.5C233.3 404.3 266.7 412.7 300 409.8C333.3 407 366.7 393 400 382.8C433.3 372.7 466.7 366.3 500 371.5C533.3 376.7 566.7 393.3 600 406.3C633.3 419.3 666.7 428.7 700 427.5C733.3 426.3 766.7 414.7 800 400.8C833.3 387 866.7 371 883.3 363L900 355L900 601L883.3 601C866.7 601 833.3 601 800 601C766.7 601 733.3 601 700 601C666.7 601 633.3 601 600 601C566.7 601 533.3 601 500 601C466.7 601 433.3 601 400 601C366.7 601 333.3 601 300 601C266.7 601 233.3 601 200 601C166.7 601 133.3 601 100 601C66.7 601 33.3 601 16.7 601L0 601Z" fill="#14094f"></path><path d="M0 446L16.7 445C33.3 444 66.7 442 100 443.3C133.3 444.7 166.7 449.3 200 452.8C233.3 456.3 266.7 458.7 300 457C333.3 455.3 366.7 449.7 400 446.3C433.3 443 466.7 442 500 440C533.3 438 566.7 435 600 425.2C633.3 415.3 666.7 398.7 700 389.8C733.3 381 766.7 380 800 384.5C833.3 389 866.7 399 883.3 404L900 409L900 601L883.3 601C866.7 601 833.3 601 800 601C766.7 601 733.3 601 700 601C666.7 601 633.3 601 600 601C566.7 601 533.3 601 500 601C466.7 601 433.3 601 400 601C366.7 601 333.3 601 300 601C266.7 601 233.3 601 200 601C166.7 601 133.3 601 100 601C66.7 601 33.3 601 16.7 601L0 601Z" fill="#0060a0"></path><path d="M0 490L16.7 488.2C33.3 486.3 66.7 482.7 100 471.2C133.3 459.7 166.7 440.3 200 428.3C233.3 416.3 266.7 411.7 300 420.5C333.3 429.3 366.7 451.7 400 459C433.3 466.3 466.7 458.7 500 449.2C533.3 439.7 566.7 428.3 600 422.5C633.3 416.7 666.7 416.3 700 423.7C733.3 431 766.7 446 800 449.2C833.3 452.3 866.7 443.7 883.3 439.3L900 435L900 601L883.3 601C866.7 601 833.3 601 800 601C766.7 601 733.3 601 700 601C666.7 601 633.3 601 600 601C566.7 601 533.3 601 500 601C466.7 601 433.3 601 400 601C366.7 601 333.3 601 300 601C266.7 601 233.3 601 200 601C166.7 601 133.3 601 100 601C66.7 601 33.3 601 16.7 601L0 601Z" fill="#26b7d9"></path><path d="M0 505L16.7 497C33.3 489 66.7 473 100 474C133.3 475 166.7 493 200 496.2C233.3 499.3 266.7 487.7 300 484.8C333.3 482 366.7 488 400 494C433.3 500 466.7 506 500 501.2C533.3 496.3 566.7 480.7 600 478.5C633.3 476.3 666.7 487.7 700 492.5C733.3 497.3 766.7 495.7 800 491.5C833.3 487.3 866.7 480.7 883.3 477.3L900 474L900 601L883.3 601C866.7 601 833.3 601 800 601C766.7 601 733.3 601 700 601C666.7 601 633.3 601 600 601C566.7 601 533.3 601 500 601C466.7 601 433.3 601 400 601C366.7 601 333.3 601 300 601C266.7 601 233.3 601 200 601C166.7 601 133.3 601 100 601C66.7 601 33.3 601 16.7 601L0 601Z" fill="#5adae8"></path><path d="M0 504L16.7 500.7C33.3 497.3 66.7 490.7 100 494C133.3 497.3 166.7 510.7 200 514.2C233.3 517.7 266.7 511.3 300 509.7C333.3 508 366.7 511 400 513C433.3 515 466.7 516 500 514.5C533.3 513 566.7 509 600 511.5C633.3 514 666.7 523 700 518.3C733.3 513.7 766.7 495.3 800 494.5C833.3 493.7 866.7 510.3 883.3 518.7L900 527L900 601L883.3 601C866.7 601 833.3 601 800 601C766.7 601 733.3 601 700 601C666.7 601 633.3 601 600 601C566.7 601 533.3 601 500 601C466.7 601 433.3 601 400 601C366.7 601 333.3 601 300 601C266.7 601 233.3 601 200 601C166.7 601 133.3 601 100 601C66.7 601 33.3 601 16.7 601L0 601Z" fill="#26b7d9"></path><path d="M0 517L16.7 517.5C33.3 518 66.7 519 100 526.3C133.3 533.7 166.7 547.3 200 552.3C233.3 557.3 266.7 553.7 300 548C333.3 542.3 366.7 534.7 400 533.3C433.3 532 466.7 537 500 535.8C533.3 534.7 566.7 527.3 600 523.2C633.3 519 666.7 518 700 520.3C733.3 522.7 766.7 528.3 800 532.3C833.3 536.3 866.7 538.7 883.3 539.8L900 541L900 601L883.3 601C866.7 601 833.3 601 800 601C766.7 601 733.3 601 700 601C666.7 601 633.3 601 600 601C566.7 601 533.3 601 500 601C466.7 601 433.3 601 400 601C366.7 601 333.3 601 300 601C266.7 601 233.3 601 200 601C166.7 601 133.3 601 100 601C66.7 601 33.3 601 16.7 601L0 601Z" fill="#0060a0"></path><path d="M0 583L16.7 577.5C33.3 572 66.7 561 100 557.5C133.3 554 166.7 558 200 556.3C233.3 554.7 266.7 547.3 300 549.5C333.3 551.7 366.7 563.3 400 570C433.3 576.7 466.7 578.3 500 574.2C533.3 570 566.7 560 600 556.5C633.3 553 666.7 556 700 560.2C733.3 564.3 766.7 569.7 800 571.3C833.3 573 866.7 571 883.3 570L900 569L900 601L883.3 601C866.7 601 833.3 601 800 601C766.7 601 733.3 601 700 601C666.7 601 633.3 601 600 601C566.7 601 533.3 601 500 601C466.7 601 433.3 601 400 601C366.7 601 333.3 601 300 601C266.7 601 233.3 601 200 601C166.7 601 133.3 601 100 601C66.7 601 33.3 601 16.7 601L0 601Z" fill="#14094f"></path></svg>