<svg version="1.2" xmlns="http://www.w3.org/2000/svg" viewBox="0 0 900 267" width="900" height="267">
	<title>layered-waves-haikei (1)-svg</title>
	<style>
		.s0 { fill: #14094f } 
		.s1 { fill: #5adae8 } 
		.s2 { fill: #0094c6 } 
		.s3 { fill: #004f92 } 
	</style>
	<path id="Layer" class="s0" d="m0 0h900v600h-900z"/>
	<path id="Layer" class="s1" d="m0 0h11.5c11.5 0 34.5 0 57.5 0 23 0 46 0 69.2 0 23.1 0 46.5 0 69.6 0 23.2 0 46.2 0 69.2 0q34.5 0 69 0c23 0 46 0 69.2 0 23.1 0 46.5 0 69.6 0 23.2 0 46.2 0 69.2 0q34.5 0 69 0c23 0 46 0 69.2 0 23.1 0 46.5 0 69.6 0 23.2 0 46.2 0 69.2 0 23 0 46 0 57.5 0h11.5v271l-11.5-8.8c-11.5-8.9-34.5-26.5-57.5-23.5-23 3-46 26.6-69.2 24.6-23.1-2-46.5-29.6-69.6-42.8-23.2-13.2-46.2-11.8-69.2-12.3-23-0.5-46-2.9-69-7.9-23-5-46-12.6-69.2-7.1-23.1 5.5-46.5 24.1-69.6 22.8-23.2-1.3-46.2-22.7-69.2-32.8-23-10.2-46-9.2-69 10.5-23 19.6-46 58-69.2 67.8-23.1 9.8-46.5-8.8-69.6-14.8-23.2-6-46.2 0.6-69.2 5.5-23 4.8-46 7.8-57.5 9.3l-11.5 1.5z"/>
	<path id="Layer" class="s2" d="m0 0h11.5c11.5 0 34.5 0 57.5 0 23 0 46 0 69.2 0 23.1 0 46.5 0 69.6 0 23.2 0 46.2 0 69.2 0q34.5 0 69 0c23 0 46 0 69.2 0 23.1 0 46.5 0 69.6 0 23.2 0 46.2 0 69.2 0q34.5 0 69 0c23 0 46 0 69.2 0 23.1 0 46.5 0 69.6 0 23.2 0 46.2 0 69.2 0 23 0 46 0 57.5 0h11.5v166l-11.5 2.5c-11.5 2.5-34.5 7.5-57.5 13-23 5.5-46 11.5-69.2 15.7-23.1 4.1-46.5 6.5-69.6-5.2-23.2-11.7-46.2-37.3-69.2-39.8-23-2.5-46 18.1-69 31.1-23 13-46 18.4-69.2 11.9-23.1-6.5-46.5-24.9-69.6-34.4-23.2-9.5-46.2-10.1-69.2-7.3-23 2.8-46 9.2-69 18-23 8.8-46 20.2-69.2 29.2-23.1 9-46.5 15.6-69.6 16.1-23.2 0.5-46.2-5.1-69.2-19.5-23-14.3-46-37.3-57.5-48.8l-11.5-11.5z"/>
	<path id="Layer" class="s3" d="m0 0h11.5c11.5 0 34.5 0 57.5 0 23 0 46 0 69.2 0 23.1 0 46.5 0 69.6 0 23.2 0 46.2 0 69.2 0q34.5 0 69 0c23 0 46 0 69.2 0 23.1 0 46.5 0 69.6 0 23.2 0 46.2 0 69.2 0q34.5 0 69 0c23 0 46 0 69.2 0 23.1 0 46.5 0 69.6 0 23.2 0 46.2 0 69.2 0 23 0 46 0 57.5 0h11.5v121l-11.5 0.2c-11.5 0.1-34.5 0.5-57.5 6.3-23 5.8-46 17.2-69.2 24.8-23.1 7.7-46.5 11.7-69.6 5.9-23.2-5.9-46.2-21.5-69.2-33.9-23-12.3-46-21.3-69-21-23 0.4-46 10-69.2 13.4-23.1 3.3-46.5 0.3-69.6 0.6-23.2 0.4-46.2 4-69.2 3.9-23-0.2-46-4.2-69 2.8-23 7-46 25-69.2 34.3-23.1 9.4-46.5 10-69.6 4.7-23.2-5.3-46.2-16.7-69.2-20.5-23-3.8-46-0.2-57.5 1.7l-11.5 1.8z"/>
	<path id="Layer" class="s0" d="m0 0h11.5c11.5 0 34.5 0 57.5 0 23 0 46 0 69.2 0 23.1 0 46.5 0 69.6 0 23.2 0 46.2 0 69.2 0q34.5 0 69 0c23 0 46 0 69.2 0 23.1 0 46.5 0 69.6 0 23.2 0 46.2 0 69.2 0q34.5 0 69 0c23 0 46 0 69.2 0 23.1 0 46.5 0 69.6 0 23.2 0 46.2 0 69.2 0 23 0 46 0 57.5 0h11.5v51l-11.5-1.2c-11.5-1.1-34.5-3.5-57.5 3.9-23 7.3-46 24.3-69.2 28-23.1 3.6-46.5-6-69.6-9.9-23.2-3.8-46.2-1.8-69.2 4-23 5.9-46 15.5-69 19.7-23 4.2-46 2.8-69.2 3.7-23.1 0.8-46.5 3.8-69.6-0.5-23.2-4.4-46.2-16-69.2-25.5-23-9.5-46-16.9-69-11.4-23 5.5-46 23.9-69.2 23.5-23.1-0.3-46.5-19.3-69.6-20.5-23.2-1.1-46.2 15.5-69.2 19-23 3.5-46-6.1-57.5-11l-11.5-4.8z"/>
</svg>