<svg id="visual" viewBox="0 0 900 600" width="900" height="600" xmlns="http://www.w3.org/2000/svg" xmlns:xlink="http://www.w3.org/1999/xlink" version="1.1"><rect x="0" y="0" width="900" height="600" fill="#fff"></rect><path d="M0 445L16.7 434.3C33.3 423.7 66.7 402.3 100 388.2C133.3 374 166.7 367 200 376.5C233.3 386 266.7 412 300 409.3C333.3 406.7 366.7 375.3 400 374.7C433.3 374 466.7 404 500 415.8C533.3 427.7 566.7 421.3 600 406.8C633.3 392.3 666.7 369.7 700 359C733.3 348.3 766.7 349.7 800 359.8C833.3 370 866.7 389 883.3 398.5L900 408L900 601L883.3 601C866.7 601 833.3 601 800 601C766.7 601 733.3 601 700 601C666.7 601 633.3 601 600 601C566.7 601 533.3 601 500 601C466.7 601 433.3 601 400 601C366.7 601 333.3 601 300 601C266.7 601 233.3 601 200 601C166.7 601 133.3 601 100 601C66.7 601 33.3 601 16.7 601L0 601Z" fill="#14094f"></path><path d="M0 389L16.7 391C33.3 393 66.7 397 100 404C133.3 411 166.7 421 200 430.3C233.3 439.7 266.7 448.3 300 447.2C333.3 446 366.7 435 400 429.3C433.3 423.7 466.7 423.3 500 430.8C533.3 438.3 566.7 453.7 600 445.2C633.3 436.7 666.7 404.3 700 392.2C733.3 380 766.7 388 800 396.2C833.3 404.3 866.7 412.7 883.3 416.8L900 421L900 601L883.3 601C866.7 601 833.3 601 800 601C766.7 601 733.3 601 700 601C666.7 601 633.3 601 600 601C566.7 601 533.3 601 500 601C466.7 601 433.3 601 400 601C366.7 601 333.3 601 300 601C266.7 601 233.3 601 200 601C166.7 601 133.3 601 100 601C66.7 601 33.3 601 16.7 601L0 601Z" fill="#0060a0"></path><path d="M0 448L16.7 452.5C33.3 457 66.7 466 100 464.2C133.3 462.3 166.7 449.7 200 443.7C233.3 437.7 266.7 438.3 300 446.3C333.3 454.3 366.7 469.7 400 469C433.3 468.3 466.7 451.7 500 452C533.3 452.3 566.7 469.7 600 472.5C633.3 475.3 666.7 463.7 700 457.7C733.3 451.7 766.7 451.3 800 444C833.3 436.7 866.7 422.3 883.3 415.2L900 408L900 601L883.3 601C866.7 601 833.3 601 800 601C766.7 601 733.3 601 700 601C666.7 601 633.3 601 600 601C566.7 601 533.3 601 500 601C466.7 601 433.3 601 400 601C366.7 601 333.3 601 300 601C266.7 601 233.3 601 200 601C166.7 601 133.3 601 100 601C66.7 601 33.3 601 16.7 601L0 601Z" fill="#26b7d9"></path><path d="M0 470L16.7 475.5C33.3 481 66.7 492 100 495.7C133.3 499.3 166.7 495.7 200 494.5C233.3 493.3 266.7 494.7 300 489.3C333.3 484 366.7 472 400 472.7C433.3 473.3 466.7 486.7 500 494.7C533.3 502.7 566.7 505.3 600 497.2C633.3 489 666.7 470 700 471.2C733.3 472.3 766.7 493.7 800 503.7C833.3 513.7 866.7 512.3 883.3 511.7L900 511L900 601L883.3 601C866.7 601 833.3 601 800 601C766.7 601 733.3 601 700 601C666.7 601 633.3 601 600 601C566.7 601 533.3 601 500 601C466.7 601 433.3 601 400 601C366.7 601 333.3 601 300 601C266.7 601 233.3 601 200 601C166.7 601 133.3 601 100 601C66.7 601 33.3 601 16.7 601L0 601Z" fill="#5adae8"></path><path d="M0 530L16.7 521C33.3 512 66.7 494 100 485.3C133.3 476.7 166.7 477.3 200 479.8C233.3 482.3 266.7 486.7 300 496C333.3 505.3 366.7 519.7 400 523.8C433.3 528 466.7 522 500 511.7C533.3 501.3 566.7 486.7 600 489C633.3 491.3 666.7 510.7 700 518.5C733.3 526.3 766.7 522.7 800 513.3C833.3 504 866.7 489 883.3 481.5L900 474L900 601L883.3 601C866.7 601 833.3 601 800 601C766.7 601 733.3 601 700 601C666.7 601 633.3 601 600 601C566.7 601 533.3 601 500 601C466.7 601 433.3 601 400 601C366.7 601 333.3 601 300 601C266.7 601 233.3 601 200 601C166.7 601 133.3 601 100 601C66.7 601 33.3 601 16.7 601L0 601Z" fill="#26b7d9"></path><path d="M0 532L16.7 531.8C33.3 531.7 66.7 531.3 100 530.5C133.3 529.7 166.7 528.3 200 532.8C233.3 537.3 266.7 547.7 300 548.8C333.3 550 366.7 542 400 540.5C433.3 539 466.7 544 500 546.2C533.3 548.3 566.7 547.7 600 545.5C633.3 543.3 666.7 539.7 700 542C733.3 544.3 766.7 552.7 800 555.7C833.3 558.7 866.7 556.3 883.3 555.2L900 554L900 601L883.3 601C866.7 601 833.3 601 800 601C766.7 601 733.3 601 700 601C666.7 601 633.3 601 600 601C566.7 601 533.3 601 500 601C466.7 601 433.3 601 400 601C366.7 601 333.3 601 300 601C266.7 601 233.3 601 200 601C166.7 601 133.3 601 100 601C66.7 601 33.3 601 16.7 601L0 601Z" fill="#0060a0"></path><path d="M0 581L16.7 580.3C33.3 579.7 66.7 578.3 100 577.2C133.3 576 166.7 575 200 571.3C233.3 567.7 266.7 561.3 300 561.2C333.3 561 366.7 567 400 571.2C433.3 575.3 466.7 577.7 500 575.2C533.3 572.7 566.7 565.3 600 565.5C633.3 565.7 666.7 573.3 700 571.8C733.3 570.3 766.7 559.7 800 555.8C833.3 552 866.7 555 883.3 556.5L900 558L900 601L883.3 601C866.7 601 833.3 601 800 601C766.7 601 733.3 601 700 601C666.7 601 633.3 601 600 601C566.7 601 533.3 601 500 601C466.7 601 433.3 601 400 601C366.7 601 333.3 601 300 601C266.7 601 233.3 601 200 601C166.7 601 133.3 601 100 601C66.7 601 33.3 601 16.7 601L0 601Z" fill="#14094f"></path></svg>