<?xml version="1.0" standalone="no"?><svg xmlns="http://www.w3.org/2000/svg" viewBox="0 0 1440 320"><path fill="#5ADAE8" fill-opacity="1" d="M0,288L18.5,245.3C36.9,203,74,117,111,101.3C147.7,85,185,139,222,160C258.5,181,295,171,332,165.3C369.2,160,406,160,443,186.7C480,213,517,267,554,250.7C590.8,235,628,149,665,128C701.5,107,738,149,775,144C812.3,139,849,85,886,69.3C923.1,53,960,75,997,101.3C1033.8,128,1071,160,1108,160C1144.6,160,1182,128,1218,128C1255.4,128,1292,160,1329,154.7C1366.2,149,1403,107,1422,85.3L1440,64L1440,0L1421.5,0C1403.1,0,1366,0,1329,0C1292.3,0,1255,0,1218,0C1181.5,0,1145,0,1108,0C1070.8,0,1034,0,997,0C960,0,923,0,886,0C849.2,0,812,0,775,0C738.5,0,702,0,665,0C627.7,0,591,0,554,0C516.9,0,480,0,443,0C406.2,0,369,0,332,0C295.4,0,258,0,222,0C184.6,0,148,0,111,0C73.8,0,37,0,18,0L0,0Z"></path></svg>