<?xml version="1.0" standalone="no"?><svg xmlns="http://www.w3.org/2000/svg" viewBox="0 0 1440 320"><path fill="#14094f" fill-opacity="1" d="M0,96L24,90.7C48,85,96,75,144,90.7C192,107,240,149,288,165.3C336,181,384,171,432,154.7C480,139,528,117,576,106.7C624,96,672,96,720,117.3C768,139,816,181,864,218.7C912,256,960,288,1008,288C1056,288,1104,256,1152,213.3C1200,171,1248,117,1296,122.7C1344,128,1392,192,1416,224L1440,256L1440,320L1416,320C1392,320,1344,320,1296,320C1248,320,1200,320,1152,320C1104,320,1056,320,1008,320C960,320,912,320,864,320C816,320,768,320,720,320C672,320,624,320,576,320C528,320,480,320,432,320C384,320,336,320,288,320C240,320,192,320,144,320C96,320,48,320,24,320L0,320Z"></path></svg>